<svg width="21" height="24" viewBox="0 0 21 24" fill="none" xmlns="http://www.w3.org/2000/svg">
<path d="M10.5 0.825806C8.28987 0.825806 6.17025 1.73877 4.60745 3.36386C3.04464 4.98895 2.16667 7.19304 2.16667 9.49126C2.16667 13.8565 5.29167 17.5285 9.45834 18.0809V19.2399H8.41667C8.1404 19.2399 7.87545 19.354 7.6801 19.5572C7.48475 19.7603 7.375 20.0358 7.375 20.3231H0.0833359V22.4895H7.375C7.375 22.7767 7.48475 23.0522 7.6801 23.2554C7.87545 23.4585 8.1404 23.5726 8.41667 23.5726H12.5833C12.8596 23.5726 13.1246 23.4585 13.3199 23.2554C13.5153 23.0522 13.625 22.7767 13.625 22.4895H20.9167V20.3231H13.625C13.625 20.0358 13.5153 19.7603 13.3199 19.5572C13.1246 19.354 12.8596 19.2399 12.5833 19.2399H11.5417V18.0809C15.7083 17.5393 18.8333 13.8565 18.8333 9.49126C18.8333 7.19304 17.9554 4.98895 16.3926 3.36386C14.8298 1.73877 12.7101 0.825806 10.5 0.825806ZM10.5 2.99217C10.5 2.99217 11.2708 4.37864 11.8125 6.24172H9.1875C9.72917 4.37864 10.5 2.99217 10.5 2.99217ZM8.17709 3.45794C7.89584 3.99953 7.46875 4.98523 7.10417 6.24172H5.09375C5.8125 4.98523 6.85417 3.99953 8.17709 3.45794ZM12.8229 3.46877C14.1458 4.01036 15.1875 4.98523 15.9063 6.24172H13.8958C13.5313 4.98523 13.1042 3.99953 12.8229 3.46877ZM4.34375 8.40808H6.66667C6.625 8.76553 6.59375 9.12298 6.59375 9.49126C6.59375 9.85955 6.625 10.217 6.66667 10.5744H4.34375C4.21762 9.85828 4.21762 9.12425 4.34375 8.40808ZM8.75 8.40808H12.25C12.2917 8.76553 12.3229 9.12298 12.3229 9.49126C12.3229 9.85955 12.2917 10.217 12.25 10.5744H8.75C8.70834 10.217 8.67709 9.85955 8.67709 9.49126C8.67709 9.12298 8.70834 8.76553 8.75 8.40808ZM14.3333 8.40808H16.6563C16.7824 9.12425 16.7824 9.85828 16.6563 10.5744H14.3333C14.375 10.217 14.4063 9.85955 14.4063 9.49126C14.4063 9.12298 14.375 8.76553 14.3333 8.40808ZM5.09375 12.7408H7.10417C7.46875 13.9973 7.89584 14.983 8.17709 15.5138C6.85417 14.9722 5.8125 13.9973 5.09375 12.7408ZM9.1875 12.7408H11.8125C11.2708 14.6039 10.5 15.9904 10.5 15.9904C10.5 15.9904 9.72917 14.6039 9.1875 12.7408ZM13.8958 12.7408H15.9063C15.1875 13.9973 14.1458 14.983 12.8229 15.5246C13.1042 14.983 13.5313 13.9973 13.8958 12.7408Z" fill="black"/>
</svg>
