<svg width="23" height="17" viewBox="0 0 23 17" fill="none" xmlns="http://www.w3.org/2000/svg">
<path d="M18.7917 2.16197H10.4583V9.74425H2.12501V-0.00439453H0.0416718V16.2433H2.12501V12.9938H20.875V16.2433H22.9583V6.4947C22.9583 5.34559 22.5194 4.24354 21.7379 3.431C20.9565 2.61845 19.8967 2.16197 18.7917 2.16197ZM6.29167 8.66106C7.12047 8.66106 7.91533 8.3187 8.50138 7.70929C9.08743 7.09988 9.41667 6.27335 9.41667 5.41152C9.41667 4.54968 9.08743 3.72315 8.50138 3.11374C7.91533 2.50433 7.12047 2.16197 6.29167 2.16197C5.46287 2.16197 4.66801 2.50433 4.08196 3.11374C3.49591 3.72315 3.16667 4.54968 3.16667 5.41152C3.16667 6.27335 3.49591 7.09988 4.08196 7.70929C4.66801 8.3187 5.46287 8.66106 6.29167 8.66106Z" fill="black"/>
</svg>
