<svg width="18" height="15" viewBox="0 0 18 15" fill="none" xmlns="http://www.w3.org/2000/svg">
<path d="M16.4167 0.79834H1.58334C1.34022 0.79834 1.10707 0.879049 0.935157 1.02271C0.763249 1.16638 0.666672 1.36123 0.666672 1.5644V13.9606C0.666672 14.1638 0.763249 14.3586 0.935157 14.5023C1.10707 14.646 1.34022 14.7267 1.58334 14.7267H9.56667V9.32944H7.4V7.24019H9.56667V5.67326C9.52179 5.30538 9.57376 4.93375 9.71894 4.58443C9.86411 4.23512 10.099 3.91658 10.4071 3.65115C10.7151 3.38572 11.089 3.17983 11.5024 3.04793C11.9157 2.91603 12.3586 2.8613 12.8 2.88759C13.4486 2.88425 14.0969 2.91216 14.7417 2.97116V4.85148H13.4167C12.3667 4.85148 12.1667 5.26933 12.1667 5.87522V7.2193H14.6667L14.3417 9.30855H12.1667V14.7267H16.4167C16.537 14.7267 16.6562 14.7069 16.7675 14.6684C16.8787 14.6299 16.9797 14.5734 17.0649 14.5023C17.15 14.4312 17.2175 14.3467 17.2636 14.2538C17.3096 14.1608 17.3333 14.0612 17.3333 13.9606V1.5644C17.3333 1.4638 17.3096 1.36418 17.2636 1.27124C17.2175 1.1783 17.15 1.09385 17.0649 1.02271C16.9797 0.951578 16.8787 0.895151 16.7675 0.856653C16.6562 0.818155 16.537 0.79834 16.4167 0.79834Z" fill="white"/>
</svg>
