<svg width="11" height="14" viewBox="0 0 11 14" fill="none" xmlns="http://www.w3.org/2000/svg">
<path d="M6 14L2.19375 8.625C1.57074 7.88942 1.16953 6.99197 1.03685 6.03718C0.904166 5.08239 1.04548 4.10956 1.44432 3.23197C1.84316 2.35439 2.48312 1.60818 3.28966 1.08024C4.09621 0.552312 5.03614 0.264386 6 0.25C7.33609 0.263203 8.61249 0.805371 9.54965 1.75776C10.4868 2.71015 11.0083 3.99512 11 5.33125C11.0005 6.49683 10.6037 7.62778 9.875 8.5375L6 14ZM6 1.5C4.99491 1.51154 4.03548 1.92149 3.33238 2.63982C2.62929 3.35815 2.24 4.32614 2.25 5.33125C2.25419 6.24864 2.58424 7.13469 3.18125 7.83125L6 11.825L8.89375 7.75C9.44381 7.0634 9.74556 6.211 9.75 5.33125C9.76 4.32614 9.37072 3.35815 8.66762 2.63982C7.96452 1.92149 7.00509 1.51154 6 1.5Z" fill="#757575"/>
<path d="M6 5.875C6.69036 5.875 7.25 5.31536 7.25 4.625C7.25 3.93464 6.69036 3.375 6 3.375C5.30964 3.375 4.75 3.93464 4.75 4.625C4.75 5.31536 5.30964 5.875 6 5.875Z" fill="#757575"/>
</svg>
