<svg width="20" height="18" viewBox="0 0 20 18" fill="none" xmlns="http://www.w3.org/2000/svg">
<path d="M10.218 2.95625C10.1598 2.90062 10.0824 2.86957 10.002 2.86957C9.92149 2.86957 9.84411 2.90062 9.78595 2.95625L2.59454 9.82617C2.564 9.85539 2.5397 9.89049 2.52312 9.92937C2.50654 9.96824 2.49801 10.0101 2.49806 10.0523L2.49689 16.5C2.49689 16.8315 2.62858 17.1495 2.863 17.3839C3.09742 17.6183 3.41537 17.75 3.74689 17.75H7.50079C7.66655 17.75 7.82552 17.6842 7.94274 17.5669C8.05995 17.4497 8.12579 17.2908 8.12579 17.125V11.8125C8.12579 11.7296 8.15872 11.6501 8.21732 11.5915C8.27593 11.5329 8.35541 11.5 8.43829 11.5H11.5633C11.6462 11.5 11.7257 11.5329 11.7843 11.5915C11.8429 11.6501 11.8758 11.7296 11.8758 11.8125V17.125C11.8758 17.2908 11.9416 17.4497 12.0589 17.5669C12.1761 17.6842 12.335 17.75 12.5008 17.75H16.2531C16.5847 17.75 16.9026 17.6183 17.137 17.3839C17.3714 17.1495 17.5031 16.8315 17.5031 16.5V10.0523C17.5032 10.0101 17.4947 9.96824 17.4781 9.92937C17.4615 9.89049 17.4372 9.85539 17.4067 9.82617L10.218 2.95625Z" fill="black"/>
<path d="M19.177 8.53711L16.2551 5.7418V1.5C16.2551 1.33424 16.1892 1.17527 16.072 1.05806C15.9548 0.940848 15.7958 0.875 15.6301 0.875H13.7551C13.5893 0.875 13.4304 0.940848 13.3131 1.05806C13.1959 1.17527 13.1301 1.33424 13.1301 1.5V2.75L10.8676 0.586719C10.6559 0.372656 10.341 0.25 10.0008 0.25C9.66173 0.25 9.34767 0.372656 9.13595 0.587109L0.827356 8.53633C0.584387 8.7707 0.553918 9.15625 0.775012 9.41016C0.830532 9.47425 0.898512 9.52637 0.974816 9.56335C1.05112 9.60033 1.13415 9.6214 1.21886 9.62528C1.30356 9.62915 1.38817 9.61575 1.46753 9.58588C1.54689 9.55602 1.61934 9.51032 1.68048 9.45156L9.78595 1.70625C9.84411 1.65062 9.92148 1.61957 10.002 1.61957C10.0824 1.61957 10.1598 1.65062 10.218 1.70625L18.3242 9.45156C18.4436 9.56607 18.6036 9.62857 18.769 9.62535C18.9344 9.62212 19.0918 9.55345 19.2067 9.43437C19.4465 9.18594 19.4266 8.77578 19.177 8.53711Z" fill="black"/>
</svg>
