<svg width="18" height="15" viewBox="0 0 18 15" fill="none" xmlns="http://www.w3.org/2000/svg">
<path d="M9.85666 0.314333C10.4648 0.312383 11.0729 0.317491 11.6808 0.329655L11.8425 0.33453C12.0292 0.340101 12.2133 0.347065 12.4358 0.355422C13.3225 0.390243 13.9275 0.507241 14.4583 0.679256C15.0083 0.856146 15.4717 1.09571 15.935 1.48292C16.3586 1.83085 16.6865 2.25173 16.8958 2.71627C17.1017 3.15989 17.2417 3.66619 17.2833 4.40717C17.2933 4.59242 17.3017 4.74703 17.3083 4.90302L17.3133 5.03813C17.3281 5.54595 17.3345 6.05392 17.3325 6.56189L17.3333 7.08141V7.99372C17.3354 8.50192 17.329 9.01012 17.3142 9.51818L17.3092 9.65328C17.3025 9.80928 17.2942 9.96318 17.2842 10.1491C17.2425 10.8901 17.1008 11.3957 16.8958 11.8393C16.6872 12.3044 16.3592 12.7256 15.935 13.0734C15.5183 13.4274 15.0144 13.7014 14.4583 13.8764C13.9275 14.0484 13.3225 14.1654 12.4358 14.2002C12.2133 14.2085 12.0292 14.2155 11.8425 14.2211L11.6808 14.2253C11.0729 14.2376 10.4648 14.243 9.85666 14.2413L9.235 14.242H8.14416C7.53605 14.2437 6.92794 14.2383 6.32 14.226L6.15833 14.2218C5.96051 14.2158 5.76272 14.2088 5.565 14.2009C4.67833 14.1661 4.07333 14.0477 3.54166 13.8764C2.98557 13.7018 2.48186 13.4277 2.06583 13.0734C1.6417 12.7254 1.31352 12.3042 1.10416 11.8393C0.898331 11.3957 0.758331 10.8901 0.716664 10.1491C0.707383 9.98388 0.69905 9.81859 0.691664 9.65328L0.687498 9.51818C0.672134 9.01013 0.665189 8.50193 0.666664 7.99372V6.56189C0.664339 6.05392 0.67045 5.54595 0.684998 5.03813L0.690831 4.90302C0.697498 4.74703 0.705831 4.59242 0.715831 4.40717C0.757498 3.66549 0.897498 3.16059 1.10333 2.71627C1.31281 2.2515 1.64163 1.83074 2.06666 1.48362C2.48241 1.12897 2.9858 0.854455 3.54166 0.679256C4.07333 0.507241 4.6775 0.390243 5.565 0.355422L6.15833 0.33453L6.32 0.331048C6.92765 0.318215 7.53549 0.31241 8.14333 0.313637L9.85666 0.314333ZM9 3.79642C8.44792 3.78989 7.8998 3.87513 7.38748 4.04717C6.87516 4.21922 6.40887 4.47464 6.0157 4.7986C5.62253 5.12255 5.31033 5.50858 5.09724 5.93425C4.88414 6.35992 4.77441 6.81673 4.77441 7.27815C4.77441 7.73957 4.88414 8.19639 5.09724 8.62205C5.31033 9.04772 5.62253 9.43375 6.0157 9.7577C6.40887 10.0817 6.87516 10.3371 7.38748 10.5091C7.8998 10.6812 8.44792 10.7664 9 10.7599C10.1051 10.7599 11.1649 10.393 11.9463 9.74001C12.7277 9.08699 13.1667 8.20131 13.1667 7.2778C13.1667 6.3543 12.7277 5.46862 11.9463 4.8156C11.1649 4.16258 10.1051 3.79642 9 3.79642ZM9 5.18925C9.33209 5.18414 9.66207 5.23438 9.97066 5.33703C10.2793 5.43969 10.5603 5.59271 10.7973 5.78715C11.0343 5.9816 11.2226 6.21356 11.3512 6.4695C11.4798 6.72544 11.546 7.00022 11.5461 7.2778C11.5461 7.55537 11.48 7.83017 11.3515 8.08615C11.2231 8.34212 11.0349 8.57414 10.7979 8.76865C10.561 8.96315 10.28 9.11625 9.97144 9.219C9.66288 9.32174 9.33292 9.37207 9.00083 9.36705C8.33779 9.36705 7.70191 9.14694 7.23306 8.75513C6.76422 8.36332 6.50083 7.83191 6.50083 7.2778C6.50083 6.7237 6.76422 6.19229 7.23306 5.80048C7.70191 5.40867 8.33779 5.18855 9.00083 5.18855L9 5.18925ZM13.375 2.75179C13.1062 2.76078 12.8519 2.85636 12.6655 3.0185C12.4791 3.18064 12.375 3.39677 12.375 3.62162C12.375 3.84646 12.4791 4.06259 12.6655 4.22473C12.8519 4.38687 13.1062 4.48245 13.375 4.49144C13.6513 4.49144 13.9162 4.39972 14.1116 4.23647C14.3069 4.07322 14.4167 3.8518 14.4167 3.62092C14.4167 3.39004 14.3069 3.16862 14.1116 3.00537C13.9162 2.84211 13.6513 2.7504 13.375 2.7504V2.75179Z" fill="white"/>
</svg>
