<svg width="65" height="40" viewBox="0 0 65 40" fill="none" xmlns="http://www.w3.org/2000/svg">
<path d="M44.65 0.690006C45.532 0.238072 46.5089 0.00238037 47.5 0.00238037C48.4911 0.00238037 49.468 0.238072 50.35 0.690006L61.6 6.46501C63.69 7.53501 65 9.68001 65 12.025V27.97C65 30.315 63.69 32.46 61.6 33.53L50.35 39.305C49.468 39.7569 48.4911 39.9926 47.5 39.9926C46.5089 39.9926 45.532 39.7569 44.65 39.305L33.4 33.53C32.3767 33.0057 31.5178 32.2092 30.9179 31.2282C30.3181 30.2473 30.0004 29.1198 30 27.97V12.02C30 9.68001 31.31 7.53501 33.4 6.46501L44.65 0.690006ZM37.76 13.875C37.463 14.4678 37.4136 15.1542 37.6227 15.7834C37.8318 16.4126 38.2823 16.9329 38.875 17.23L45 20.29V27.495C45 28.158 45.2634 28.7939 45.7322 29.2628C46.2011 29.7316 46.837 29.995 47.5 29.995C48.163 29.995 48.7989 29.7316 49.2678 29.2628C49.7366 28.7939 50 28.158 50 27.495V20.29L56.12 17.23C56.4161 17.0845 56.6805 16.8818 56.8979 16.6336C57.1153 16.3854 57.2814 16.0967 57.3867 15.784C57.4919 15.4713 57.5343 15.1408 57.5112 14.8117C57.4882 14.4826 57.4002 14.1613 57.2524 13.8663C57.1046 13.5713 56.8998 13.3085 56.65 13.0931C56.4001 12.8776 56.1101 12.7137 55.7966 12.6109C55.4831 12.508 55.1523 12.4683 54.8234 12.4939C54.4944 12.5195 54.1738 12.6099 53.88 12.76L47.5 15.95L41.12 12.76C40.5272 12.463 39.8408 12.4136 39.2116 12.6227C38.5824 12.8318 38.0621 13.2823 37.765 13.875H37.76ZM2.5 17.5C1.83696 17.5 1.20107 17.7634 0.732233 18.2322C0.263392 18.7011 0 19.337 0 20C0 20.663 0.263392 21.2989 0.732233 21.7678C1.20107 22.2366 1.83696 22.5 2.5 22.5H17.5C18.163 22.5 18.7989 22.2366 19.2678 21.7678C19.7366 21.2989 20 20.663 20 20C20 19.337 19.7366 18.7011 19.2678 18.2322C18.7989 17.7634 18.163 17.5 17.5 17.5H2.5ZM5 7.50001C5 6.83696 5.26339 6.20108 5.73223 5.73224C6.20107 5.2634 6.83696 5.00001 7.5 5.00001H22.5C23.163 5.00001 23.7989 5.2634 24.2678 5.73224C24.7366 6.20108 25 6.83696 25 7.50001C25 8.16305 24.7366 8.79893 24.2678 9.26777C23.7989 9.73661 23.163 10 22.5 10H7.5C6.83696 10 6.20107 9.73661 5.73223 9.26777C5.26339 8.79893 5 8.16305 5 7.50001ZM7.5 30C6.83696 30 6.20107 30.2634 5.73223 30.7322C5.26339 31.2011 5 31.837 5 32.5C5 33.163 5.26339 33.7989 5.73223 34.2678C6.20107 34.7366 6.83696 35 7.5 35H22.5C23.163 35 23.7989 34.7366 24.2678 34.2678C24.7366 33.7989 25 33.163 25 32.5C25 31.837 24.7366 31.2011 24.2678 30.7322C23.7989 30.2634 23.163 30 22.5 30H7.5Z" fill="white"/>
</svg>
