<svg width="20" height="14" viewBox="0 0 20 14" fill="none" xmlns="http://www.w3.org/2000/svg">
<path d="M17.256 8.90315C17.16 8.34574 16.645 7.91117 15.982 7.78164C13.405 7.27688 12.759 6.0367 12.65 4.66114C12.193 4.5901 11.38 4.51322 10 4.51322C8.62 4.51322 7.807 4.5901 7.35 4.66114C7.241 6.0367 6.595 7.27688 4.018 7.78164C3.355 7.91201 2.84 8.34574 2.744 8.90315L2.247 11.7796C2.072 12.7925 2.962 13.7059 4.2 13.7059H15.8C17.037 13.7059 17.928 12.7925 17.753 11.7796L17.256 8.90315ZM10 11.61C8.605 11.61 7.474 10.674 7.474 9.52073C7.474 8.36746 8.605 7.43148 10 7.43148C11.395 7.43148 12.526 8.36746 12.526 9.52073C12.526 10.674 11.394 11.61 10 11.61ZM19.95 3.67752C19.926 2.42397 16.108 0.335552 10 0.334717C3.891 0.335552 0.0729981 2.42397 0.0499981 3.67752C0.0269981 4.93107 0.0709982 6.56235 2.585 6.29075C5.526 5.97235 5.345 5.11408 5.345 3.88728C5.345 3.03152 7.737 2.8251 10 2.8251C12.263 2.8251 14.654 3.03152 14.655 3.88728C14.655 5.11408 14.474 5.97235 17.415 6.29075C19.928 6.56235 19.973 4.93107 19.95 3.67752Z" fill="white"/>
</svg>
