<svg width="20" height="21" viewBox="0 0 20 21" fill="none" xmlns="http://www.w3.org/2000/svg">
<path d="M6.375 0.908936C2.92708 0.908936 0.270833 3.8227 0.125 7.40803V20.4062H9.5V12.239C10.6458 13.3114 12.1042 13.9071 13.6667 13.9071C17.1146 13.9071 19.9167 10.9934 19.9167 7.40803C19.9167 3.8227 17.1146 0.908936 13.6667 0.908936H6.375ZM13.6667 3.0753C15.9687 3.0753 17.8333 5.0142 17.8333 7.40803C17.8333 9.80186 15.9687 11.7408 13.6667 11.7408C11.3646 11.7408 9.5 9.80186 9.5 7.40803C9.5 5.0142 11.3646 3.0753 13.6667 3.0753ZM13.6667 5.51246C12.6562 5.51246 11.8438 6.35734 11.8438 7.40803C11.8438 8.45872 12.6562 9.3036 13.6667 9.3036C14.6771 9.3036 15.4896 8.45872 15.4896 7.40803C15.4896 6.35734 14.6771 5.51246 13.6667 5.51246ZM1.16667 10.6576H2.20833V11.7408H1.16667V10.6576ZM3.25 10.6576H4.29167V11.7408H3.25V10.6576ZM5.33333 10.6576H6.375V11.7408H5.33333V10.6576ZM7.41667 10.6576H8.45833V11.7408H7.41667V10.6576Z" fill="black"/>
</svg>
