<svg width="43" height="43" viewBox="0 0 43 43" fill="none" xmlns="http://www.w3.org/2000/svg">
<path d="M36.2292 33.375C37.1459 31.9375 37.6667 30.2083 37.6667 28.375C37.6667 23.1667 33.5 19 28.2917 19C23.0834 19 18.9167 23.1667 18.9167 28.375C18.9167 33.5833 23.0834 37.75 28.2917 37.75C30.1042 37.75 31.8125 37.2292 33.25 36.3333L39.75 42.7292L42.6459 39.8333L36.2292 33.375ZM28.2917 33.5833C26.9104 33.5833 25.5856 33.0346 24.6088 32.0578C23.6321 31.0811 23.0834 29.7563 23.0834 28.375C23.0834 26.9937 23.6321 25.6689 24.6088 24.6922C25.5856 23.7154 26.9104 23.1667 28.2917 23.1667C29.673 23.1667 30.9978 23.7154 31.9745 24.6922C32.9513 25.6689 33.5 26.9937 33.5 28.375C33.5 29.7563 32.9513 31.0811 31.9745 32.0578C30.9978 33.0346 29.673 33.5833 28.2917 33.5833ZM6.41669 35.6667V19H0.166687L21 0.25L41.8334 19H38.0417C35.5834 16.4375 32.125 14.8333 28.2917 14.8333C20.8334 14.8333 14.75 20.9167 14.75 28.375C14.75 31.0625 15.5417 33.5833 16.8959 35.6667H6.41669Z" fill="#2C2C2E"/>
</svg>
