<svg width="16" height="16" viewBox="0 0 16 16" fill="none" xmlns="http://www.w3.org/2000/svg">
<path d="M0.500793 15.5V3.83333H3.83413V0.5H12.1675V7.16667H15.5008V15.5H8.83413V12.1667H7.16746V15.5H0.500793ZM2.16746 13.8333H3.83413V12.1667H2.16746V13.8333ZM2.16746 10.5H3.83413V8.83333H2.16746V10.5ZM2.16746 7.16667H3.83413V5.5H2.16746V7.16667ZM5.50079 10.5H7.16746V8.83333H5.50079V10.5ZM5.50079 7.16667H7.16746V5.5H5.50079V7.16667ZM5.50079 3.83333H7.16746V2.16667H5.50079V3.83333ZM8.83413 10.5H10.5008V8.83333H8.83413V10.5ZM8.83413 7.16667H10.5008V5.5H8.83413V7.16667ZM8.83413 3.83333H10.5008V2.16667H8.83413V3.83333ZM12.1675 13.8333H13.8341V12.1667H12.1675V13.8333ZM12.1675 10.5H13.8341V8.83333H12.1675V10.5Z" fill="black"/>
</svg>
