<svg width="18" height="13" viewBox="0 0 18 13" fill="none" xmlns="http://www.w3.org/2000/svg">
<path d="M15.6667 0.929688H2.33334C1.40834 0.929688 0.675005 1.58154 0.675005 2.39453L0.666672 11.1836C0.666672 11.9966 1.40834 12.6484 2.33334 12.6484H15.6667C16.5917 12.6484 17.3333 11.9966 17.3333 11.1836V2.39453C17.3333 1.58154 16.5917 0.929688 15.6667 0.929688ZM8.16667 5.32422H5.66667V6.05664H8.16667C8.625 6.05664 9 6.38623 9 6.78906V8.98633C9 9.38916 8.625 9.71875 8.16667 9.71875H7.33334C7.33334 10.1216 6.95834 10.4512 6.5 10.4512C6.04167 10.4512 5.66667 10.1216 5.66667 9.71875H4.83334C4.37501 9.71875 4.00001 9.38916 4.00001 8.98633C4.00001 8.5835 4.37501 8.25391 4.83334 8.25391H7.33334V7.52148H4.83334C4.37501 7.52148 4.00001 7.19189 4.00001 6.78906V4.5918C4.00001 4.18896 4.37501 3.85938 4.83334 3.85938H5.66667C5.66667 3.45654 6.04167 3.12695 6.5 3.12695C6.95834 3.12695 7.33334 3.45654 7.33334 3.85938H8.16667C8.625 3.85938 9 4.18896 9 4.5918C9 4.99463 8.625 5.32422 8.16667 5.32422ZM12.0417 9.64551L10.6667 8.43701H14L12.625 9.64551C12.4667 9.78467 12.2 9.78467 12.0417 9.64551ZM10.6667 5.32422L12.0417 4.11572C12.2083 3.96924 12.4667 3.96924 12.6333 4.11572L14 5.32422H10.6667Z" fill="#757575"/>
</svg>
