<svg width="17" height="17" viewBox="0 0 17 17" fill="none" xmlns="http://www.w3.org/2000/svg">
<path d="M7.23546 0.568003C7.17321 0.505798 7.0888 0.470856 7.00079 0.470856C6.91279 0.470856 6.82838 0.505798 6.76613 0.568003L0.89946 6.43467C0.85415 6.4814 0.823513 6.54038 0.811332 6.60432C0.79915 6.66827 0.805957 6.73438 0.830912 6.79449C0.855868 6.85461 0.897879 6.90611 0.951762 6.94263C1.00564 6.97915 1.06904 6.9991 1.13413 7H3.00079V16.0013C3.00114 16.0893 3.03624 16.1735 3.09842 16.2357C3.16061 16.2979 3.24485 16.333 3.33279 16.3333H7.99946C8.04311 16.3339 8.08643 16.3257 8.12692 16.3095C8.16742 16.2932 8.20428 16.269 8.23539 16.2384C8.26651 16.2078 8.29125 16.1713 8.30819 16.1311C8.32514 16.0908 8.33395 16.0477 8.33413 16.004V6.09734C8.33413 6.00934 8.36879 5.924 8.43146 5.86267L10.3341 3.66667L7.23546 0.568003ZM7.00079 13.6667H5.66746V12.3333H7.00079V13.6667ZM7.00079 11H5.66746V9.66667H7.00079V11ZM7.00079 7V8.33334H5.66746V7H7.00079ZM16.0008 3H15.3341C15.2457 3 15.1609 3.03512 15.0984 3.09763C15.0359 3.16015 15.0008 3.24493 15.0008 3.33334V5.66667L13.2355 3.23467C13.1732 3.17247 13.0888 3.13752 13.0008 3.13752C12.9128 3.13752 12.8284 3.17247 12.7661 3.23467L9.74213 6.90934C9.69393 6.96795 9.66754 7.04145 9.66746 7.11734V15.9973C9.66693 16.0409 9.675 16.0842 9.6912 16.1247C9.70739 16.1652 9.73141 16.2021 9.76186 16.2333C9.79232 16.2645 9.82863 16.2894 9.86871 16.3065C9.90879 16.3237 9.95186 16.3328 9.99546 16.3333H11.9955C12.0398 16.3335 12.0837 16.325 12.1247 16.3082C12.1656 16.2914 12.2029 16.2667 12.2344 16.2355C12.2658 16.2043 12.2908 16.1672 12.3079 16.1263C12.3251 16.0855 12.334 16.0416 12.3341 15.9973V13.6667H13.6675V15.996C13.6675 16.0855 13.703 16.1713 13.7663 16.2345C13.8295 16.2978 13.9153 16.3333 14.0048 16.3333H16.0048C16.0923 16.3323 16.1758 16.2969 16.2374 16.2348C16.2991 16.1727 16.3338 16.0888 16.3341 16.0013V3.33334C16.3341 3.24493 16.299 3.16015 16.2365 3.09763C16.174 3.03512 16.0892 3 16.0008 3ZM12.3341 9.66667H11.0008V8.33334H12.3341V9.66667ZM15.0008 9.66667H13.6675V8.33334H15.0008V9.66667ZM12.3341 12.3333H11.0008V11H12.3341V12.3333ZM15.0008 12.3333H13.6675V11H15.0008V12.3333Z" fill="black"/>
</svg>
