<svg width="20" height="17" viewBox="0 0 20 17" fill="none" xmlns="http://www.w3.org/2000/svg">
<path d="M12.5 10.3671H15.8333L18.3333 15.2421H1.66667L4.16667 10.3671H7.5M10.8333 5.49222C10.8333 5.67692 10.7455 5.85406 10.5893 5.98466C10.433 6.11526 10.221 6.18864 10 6.18864C9.77899 6.18864 9.56703 6.11526 9.41075 5.98466C9.25447 5.85406 9.16667 5.67692 9.16667 5.49222C9.16667 5.30752 9.25447 5.13038 9.41075 4.99978C9.56703 4.86918 9.77899 4.7958 10 4.7958C10.221 4.7958 10.433 4.86918 10.5893 4.99978C10.7455 5.13038 10.8333 5.30752 10.8333 5.49222ZM5.00001 5.49222C5.00001 8.9743 10 12.4564 10 12.4564C10 12.4564 15 8.9743 15 5.49222C15 3.11256 12.7617 1.31372 10 1.31372C7.23834 1.31372 5.00001 3.11256 5.00001 5.49222Z" stroke="white" stroke-width="2"/>
</svg>
