<svg width="18" height="13" viewBox="0 0 18 13" fill="none" xmlns="http://www.w3.org/2000/svg">
<path d="M17.7167 1.84156C17.075 2.08531 16.3833 2.24549 15.6667 2.32209C16.4 1.95299 16.9667 1.368 17.2333 0.66462C16.5417 1.01283 15.775 1.25657 14.9667 1.39586C14.3083 0.796939 13.3833 0.44873 12.3333 0.44873C10.375 0.44873 8.77501 1.78585 8.77501 3.43636C8.77501 3.67314 8.80834 3.90296 8.86667 4.11885C5.90001 3.99349 3.25834 2.80262 1.50001 0.9989C1.19167 1.43764 1.01667 1.95299 1.01667 2.4962C1.01667 3.53386 1.64167 4.45313 2.60834 4.97544C2.01667 4.97544 1.46667 4.83615 0.983341 4.62723V4.64812C0.983341 6.09667 2.21667 7.30843 3.85001 7.58004C3.32561 7.69996 2.77509 7.71665 2.24167 7.62879C2.46801 8.22247 2.91129 8.74194 3.50919 9.11419C4.10709 9.48644 4.82955 9.69275 5.57501 9.70411C4.31137 10.5401 2.745 10.992 1.13334 10.9855C0.850007 10.9855 0.566674 10.9716 0.28334 10.9437C1.86667 11.7934 3.75001 12.2878 5.76667 12.2878C12.3333 12.2878 15.9417 7.73325 15.9417 3.78457C15.9417 3.65225 15.9417 3.52689 15.9333 3.39457C16.6333 2.97672 17.2333 2.44745 17.7167 1.84156Z" fill="white"/>
</svg>
